<svg width="44" height="31" viewBox="0 0 44 31" fill="none" xmlns="http://www.w3.org/2000/svg">
<path d="M3.09301 27.6752H0.181763V11.7833H2.96644V14.3779H3.09301C3.38835 13.5346 3.98958 12.8211 4.89672 12.2373C5.82494 11.6319 6.73207 11.3292 7.6181 11.3292C8.46195 11.3292 9.1792 11.459 9.7699 11.7184L8.88387 14.6049C8.52524 14.4535 7.95565 14.3779 7.17509 14.3779C6.07809 14.3779 5.11823 14.8319 4.29548 15.74C3.49384 16.6481 3.09301 17.7076 3.09301 18.9184V27.6752ZM8.9076 22.8103C8.9076 23.5887 9.22404 24.2373 9.85692 24.7563C10.5109 25.2752 11.2704 25.5346 12.1353 25.5346C13.3589 25.5346 14.4453 25.0698 15.3946 24.14C16.365 23.2103 16.8502 22.1184 16.8502 20.8644C15.9431 20.1292 14.6773 19.7617 13.053 19.7617C11.8716 19.7617 10.8801 20.0536 10.0784 20.6373C9.29787 21.2211 8.9076 21.9454 8.9076 22.8103ZM12.6732 11.2644C14.825 11.2644 16.5233 11.8589 17.7679 13.0481C19.0126 14.2157 19.6349 15.8265 19.6349 17.8806V27.6752H16.8502V25.4698H16.7237C15.5212 27.286 13.9179 28.1941 11.9138 28.1941C10.205 28.1941 8.77048 27.6752 7.61019 26.6373C6.47101 25.5995 5.90142 24.3022 5.90142 22.7454C5.90142 21.1022 6.50265 19.7941 7.70513 18.8211C8.9287 17.8481 10.5531 17.3617 12.5783 17.3617C14.3082 17.3617 15.7322 17.686 16.8502 18.3346V17.6536C16.8502 16.6157 16.4494 15.74 15.6478 15.0265C14.8461 14.2914 13.9074 13.9238 12.8315 13.9238C11.2071 13.9238 9.92021 14.6265 8.97089 16.0319L6.40772 14.3779C7.82116 12.3022 9.90967 11.2644 12.6732 11.2644ZM25.7981 4.19409C26.8528 4.19409 27.7179 4.37788 28.3929 4.74544L27.6018 7.37247C27.0955 7.11301 26.5259 6.98328 25.893 6.98328C25.1757 6.98328 24.5851 7.24274 24.1209 7.76166C23.6779 8.25895 23.4564 8.92923 23.4564 9.77247V11.7833H27.5069V14.5076H23.4564V27.6752H20.5452V14.5076H17.6339V11.7833H20.5452V9.48058C20.5452 7.90219 21.0304 6.62653 22.0008 5.65355C22.9923 4.68058 24.2581 4.19409 25.7981 4.19409ZM24.1894 19.7292C24.1894 17.286 24.9383 15.2644 26.4361 13.6644C27.955 12.0644 29.8643 11.2644 32.1636 11.2644C34.4632 11.2644 36.3618 12.0644 37.8596 13.6644C39.3785 15.2644 40.1379 17.286 40.1379 19.7292C40.1379 22.1941 39.3785 24.2157 37.8596 25.7941C36.3618 27.3941 34.4632 28.1941 32.1636 28.1941C29.8643 28.1941 27.955 27.3941 26.4361 25.7941C24.9383 24.1941 24.1894 22.1725 24.1894 19.7292ZM27.1006 19.7292C27.1006 21.4373 27.586 22.8211 28.5562 23.8806C29.5267 24.94 30.7292 25.4698 32.1636 25.4698C33.5983 25.4698 34.8008 24.94 35.771 23.8806C36.7415 22.8211 37.2267 21.4373 37.2267 19.7292C37.2267 18.0427 36.7415 16.6698 35.771 15.6103C34.7796 14.5292 33.5771 13.9887 32.1636 13.9887C30.7504 13.9887 29.5479 14.5292 28.5562 15.6103C27.586 16.6698 27.1006 18.0427 27.1006 19.7292ZM43.8181 25.6644C43.8181 26.2698 43.6071 26.7887 43.1852 27.2211C42.7843 27.6535 42.278 27.8698 41.6663 27.8698C41.0756 27.8698 40.5693 27.6535 40.1474 27.2211C39.7256 26.7887 39.5145 26.2698 39.5145 25.6644C39.5145 25.0373 39.7256 24.5184 40.1474 24.1076C40.5693 23.6752 41.0756 23.459 41.6663 23.459C42.278 23.459 42.7843 23.6752 43.1852 24.1076C43.6071 24.5184 43.8181 25.0373 43.8181 25.6644Z" fill="#F9FAFB"/>
</svg>
