<svg width="551" height="206" viewBox="0 0 551 206" fill="none" xmlns="http://www.w3.org/2000/svg">
<g id="Frame 102">
<g id="Frame 75">
<g id="Frame 94">
<rect y="8.09717" width="148" height="148" rx="41.0443" fill="#F0F9FF"/>
<g id="Frame 93" filter="url(#filter0_dd_307_8204)">
<rect x="12" y="20.0972" width="124" height="124" rx="41.0443" fill="#38BDF8" shape-rendering="crispEdges"/>
<g id="Group">
<path id="Vector" d="M115.892 82.1059C115.892 76.4966 108.941 71.1808 98.2845 67.8843C100.744 56.9074 99.6507 48.1743 94.8347 45.3783C93.7247 44.7225 92.4268 44.4118 91.0093 44.4118V48.2606C91.7949 48.2606 92.4268 48.4159 92.9562 48.7093C95.2788 50.0555 96.2864 55.1815 95.5008 61.7745C95.3129 63.3969 95.0055 65.1056 94.6298 66.8487C91.2826 66.0203 87.6279 65.3817 83.7854 64.9675C81.4799 61.7745 79.089 58.875 76.681 56.3379C82.2484 51.1084 87.4742 48.2433 91.0264 48.2433V44.3945C86.33 44.3945 80.182 47.7773 73.9656 53.6455C67.7493 47.8119 61.6013 44.4636 56.9049 44.4636V48.3124C60.44 48.3124 65.6829 51.1601 71.2503 56.3552C68.8594 58.8923 66.4685 61.7745 64.1971 64.9675C60.3375 65.3817 56.6829 66.0203 53.3356 66.866C52.9429 65.1401 52.6525 63.4659 52.4476 61.8608C51.6449 55.2678 52.6354 50.1418 54.941 48.7784C55.4533 48.4677 56.1193 48.3296 56.9049 48.3296V44.4808C55.4704 44.4808 54.1725 44.7915 53.0453 45.4473C48.2464 48.2433 47.1705 56.9592 49.6468 67.9015C39.0244 71.2153 32.1079 76.5139 32.1079 82.1059C32.1079 87.7151 39.0586 93.0309 49.7151 96.3274C47.2559 107.304 48.3489 116.037 53.1649 118.833C54.2749 119.489 55.5728 119.8 57.0074 119.8C61.7038 119.8 67.8518 116.417 74.0681 110.549C80.2844 116.383 86.4325 119.731 91.1289 119.731C92.5634 119.731 93.8613 119.42 94.9884 118.764C99.7873 115.968 100.863 107.252 98.3869 96.3102C108.975 93.0137 115.892 87.6978 115.892 82.1059ZM93.6564 70.594C93.0245 72.8204 92.2389 75.1159 91.3509 77.4114C90.6507 76.0306 89.9163 74.6499 89.1137 73.2692C88.3281 71.8884 87.4913 70.5422 86.6545 69.2305C89.0795 69.5929 91.4192 70.0417 93.6564 70.594ZM85.8347 88.975C84.5027 91.305 83.1364 93.5142 81.719 95.568C79.1744 95.7924 76.5956 95.9132 73.9998 95.9132C71.4211 95.9132 68.8423 95.7924 66.3148 95.5853C64.8973 93.5314 63.514 91.3395 62.1819 89.0268C60.884 86.7658 59.7057 84.4704 58.6298 82.1576C59.6886 79.8449 60.884 77.5322 62.1649 75.2712C63.4969 72.9412 64.8632 70.7321 66.2806 68.6782C68.8252 68.4538 71.404 68.333 73.9998 68.333C76.5786 68.333 79.1573 68.4538 81.6848 68.661C83.1023 70.7148 84.4856 72.9067 85.8177 75.2194C87.1156 77.4804 88.2939 79.7759 89.3698 82.0886C88.2939 84.4013 87.1156 86.7141 85.8347 88.975ZM91.3509 86.7313C92.2731 89.0441 93.0587 91.3568 93.7076 93.6005C91.4704 94.1528 89.1137 94.6188 86.6715 94.9812C87.5084 93.6523 88.3452 92.2888 89.1308 90.8908C89.9163 89.5101 90.6507 88.1121 91.3509 86.7313ZM74.034 105.147C72.4457 103.49 70.8575 101.643 69.2863 99.6239C70.8233 99.693 72.3945 99.7448 73.9827 99.7448C75.588 99.7448 77.1763 99.7102 78.7304 99.6239C77.1934 101.643 75.6051 103.49 74.034 105.147ZM61.3281 94.9812C58.903 94.6188 56.5633 94.17 54.3262 93.6177C54.958 91.3913 55.7436 89.0958 56.6317 86.8004C57.3318 88.1811 58.0662 89.5618 58.8689 90.9426C59.6715 92.3233 60.4912 93.6695 61.3281 94.9812ZM73.9486 59.0648C75.5368 60.7217 77.125 62.5685 78.6962 64.5878C77.1592 64.5187 75.588 64.467 73.9998 64.467C72.3945 64.467 70.8063 64.5015 69.2522 64.5878C70.7892 62.5685 72.3774 60.7217 73.9486 59.0648ZM61.311 69.2305C60.4742 70.5595 59.6374 71.9229 58.8518 73.3209C58.0662 74.7017 57.3318 76.0824 56.6317 77.4631C55.7095 75.1504 54.9239 72.8377 54.2749 70.594C56.5121 70.0589 58.8689 69.5929 61.311 69.2305ZM45.8556 90.839C39.81 88.2329 35.8992 84.8156 35.8992 82.1059C35.8992 79.3962 39.81 75.9616 45.8556 73.3727C47.3243 72.7341 48.9296 72.1646 50.5861 71.6295C51.5595 75.0123 52.8404 78.5332 54.4286 82.1404C52.8575 85.7303 51.5937 89.2339 50.6373 92.5994C48.9466 92.0644 47.3413 91.4776 45.8556 90.839ZM55.0434 115.502C52.7208 114.156 51.7132 109.03 52.4988 102.437C52.6867 100.815 52.9941 99.1062 53.3698 97.363C56.7171 98.1914 60.3717 98.83 64.2142 99.2442C66.5197 102.437 68.9106 105.337 71.3186 107.874C65.7512 113.103 60.5254 115.968 56.9732 115.968C56.2047 115.951 55.5558 115.796 55.0434 115.502ZM95.552 102.351C96.3547 108.944 95.3642 114.07 93.0586 115.433C92.5463 115.744 91.8803 115.882 91.0947 115.882C87.5596 115.882 82.3167 113.034 76.7493 107.839C79.1402 105.302 81.5311 102.42 83.8025 99.227C87.6621 98.8128 91.3167 98.1742 94.664 97.3285C95.0568 99.0716 95.3642 100.746 95.552 102.351ZM102.127 90.839C100.658 91.4776 99.053 92.0472 97.3964 92.5822C96.423 89.1994 95.1421 85.6785 93.5539 82.0713C95.1251 78.4814 96.3888 74.9778 97.3452 71.6123C99.0359 72.1473 100.641 72.7341 102.144 73.3727C108.19 75.9788 112.1 79.3962 112.1 82.1059C112.083 84.8156 108.173 88.2501 102.127 90.839Z" fill="white"/>
<path id="Vector_2" d="M73.9818 89.9929C78.2922 89.9929 81.7864 86.4616 81.7864 82.1055C81.7864 77.7493 78.2922 74.218 73.9818 74.218C69.6715 74.218 66.1772 77.7493 66.1772 82.1055C66.1772 86.4616 69.6715 89.9929 73.9818 89.9929Z" fill="white"/>
</g>
</g>
</g>
<path id="React" d="M45.208 198.097L40.728 190.313H38.292V198.097H35.1V178.637H41.82C43.3133 178.637 44.5733 178.898 45.6 179.421C46.6453 179.944 47.42 180.644 47.924 181.521C48.4467 182.399 48.708 183.379 48.708 184.461C48.708 185.731 48.3347 186.888 47.588 187.933C46.86 188.96 45.7307 189.66 44.2 190.033L49.016 198.097H45.208ZM38.292 187.765H41.82C43.0147 187.765 43.9107 187.467 44.508 186.869C45.124 186.272 45.432 185.469 45.432 184.461C45.432 183.453 45.1333 182.669 44.536 182.109C43.9387 181.53 43.0333 181.241 41.82 181.241H38.292V187.765ZM66.9314 190.005C66.9314 190.584 66.8941 191.107 66.8194 191.573H55.0314C55.1247 192.805 55.5821 193.795 56.4034 194.541C57.2247 195.288 58.2327 195.661 59.4274 195.661C61.1447 195.661 62.3581 194.943 63.0674 193.505H66.5114C66.0447 194.924 65.1954 196.091 63.9634 197.005C62.7501 197.901 61.2381 198.349 59.4274 198.349C57.9527 198.349 56.6274 198.023 55.4514 197.369C54.2941 196.697 53.3794 195.764 52.7074 194.569C52.0541 193.356 51.7274 191.956 51.7274 190.369C51.7274 188.783 52.0447 187.392 52.6794 186.197C53.3327 184.984 54.2381 184.051 55.3954 183.397C56.5714 182.744 57.9154 182.417 59.4274 182.417C60.8834 182.417 62.1807 182.735 63.3194 183.369C64.4581 184.004 65.3447 184.9 65.9794 186.057C66.6141 187.196 66.9314 188.512 66.9314 190.005ZM63.5994 188.997C63.5807 187.821 63.1607 186.879 62.3394 186.169C61.5181 185.46 60.5007 185.105 59.2874 185.105C58.1861 185.105 57.2434 185.46 56.4594 186.169C55.6754 186.86 55.2087 187.803 55.0594 188.997H63.5994ZM69.0087 190.313C69.0087 188.764 69.326 187.392 69.9607 186.197C70.614 185.003 71.4913 184.079 72.5927 183.425C73.7127 182.753 74.9447 182.417 76.2887 182.417C77.502 182.417 78.5567 182.66 79.4527 183.145C80.3673 183.612 81.0953 184.2 81.6367 184.909V182.669H84.8567V198.097H81.6367V195.801C81.0953 196.529 80.358 197.136 79.4247 197.621C78.4913 198.107 77.4273 198.349 76.2327 198.349C74.9073 198.349 73.694 198.013 72.5927 197.341C71.4913 196.651 70.614 195.699 69.9607 194.485C69.326 193.253 69.0087 191.863 69.0087 190.313ZM81.6367 190.369C81.6367 189.305 81.4127 188.381 80.9647 187.597C80.5353 186.813 79.966 186.216 79.2567 185.805C78.5473 185.395 77.782 185.189 76.9607 185.189C76.1393 185.189 75.374 185.395 74.6647 185.805C73.9553 186.197 73.3767 186.785 72.9287 187.569C72.4993 188.335 72.2847 189.249 72.2847 190.313C72.2847 191.377 72.4993 192.311 72.9287 193.113C73.3767 193.916 73.9553 194.532 74.6647 194.961C75.3927 195.372 76.158 195.577 76.9607 195.577C77.782 195.577 78.5473 195.372 79.2567 194.961C79.966 194.551 80.5353 193.953 80.9647 193.169C81.4127 192.367 81.6367 191.433 81.6367 190.369ZM87.9852 190.369C87.9852 188.783 88.3026 187.392 88.9372 186.197C89.5906 184.984 90.4866 184.051 91.6252 183.397C92.7639 182.744 94.0706 182.417 95.5452 182.417C97.4119 182.417 98.9519 182.865 100.165 183.761C101.397 184.639 102.228 185.899 102.657 187.541H99.2132C98.9332 186.776 98.4852 186.179 97.8692 185.749C97.2532 185.32 96.4786 185.105 95.5452 185.105C94.2386 185.105 93.1932 185.572 92.4092 186.505C91.6439 187.42 91.2612 188.708 91.2612 190.369C91.2612 192.031 91.6439 193.328 92.4092 194.261C93.1932 195.195 94.2386 195.661 95.5452 195.661C97.3932 195.661 98.6159 194.849 99.2132 193.225H102.657C102.209 194.793 101.369 196.044 100.137 196.977C98.9052 197.892 97.3746 198.349 95.5452 198.349C94.0706 198.349 92.7639 198.023 91.6252 197.369C90.4866 196.697 89.5906 195.764 88.9372 194.569C88.3026 193.356 87.9852 191.956 87.9852 190.369ZM109.562 185.273V193.813C109.562 194.392 109.693 194.812 109.954 195.073C110.234 195.316 110.701 195.437 111.354 195.437H113.314V198.097H110.794C109.357 198.097 108.256 197.761 107.49 197.089C106.725 196.417 106.342 195.325 106.342 193.813V185.273H104.522V182.669H106.342V178.833H109.562V182.669H113.314V185.273H109.562Z" fill="#111827"/>
</g>
<g id="Frame 76">
<g id="Frame 94_2">
<rect x="201.5" y="8.09717" width="148" height="148" rx="41.0443" fill="#ECFDF5"/>
<g id="Frame 93_2" filter="url(#filter1_dd_307_8204)">
<rect x="213.5" y="20.0972" width="124" height="124" rx="41.0443" fill="#83CD29" shape-rendering="crispEdges"/>
<g id="Group 1">
<path id="Vector_3" d="M275.5 123.989C274.276 123.99 273.074 123.692 272.014 123.127L260.923 117.062C259.268 116.206 260.074 115.904 260.622 115.727C262.382 115.225 264.068 114.521 265.639 113.633C265.771 113.576 265.916 113.552 266.06 113.562C266.205 113.572 266.344 113.616 266.465 113.69L274.988 118.367C275.147 118.444 275.324 118.485 275.503 118.485C275.683 118.485 275.86 118.444 276.018 118.367L309.254 100.646C309.409 100.56 309.538 100.438 309.627 100.292C309.716 100.146 309.763 99.9816 309.762 99.8142V64.3671C309.762 64.197 309.715 64.0297 309.625 63.8814C309.535 63.7331 309.405 63.6087 309.247 63.5203L276.012 45.8148C275.855 45.7332 275.678 45.6904 275.498 45.6904C275.318 45.6904 275.142 45.7332 274.985 45.8148L241.769 63.5263C241.61 63.6129 241.479 63.7357 241.387 63.883C241.295 64.0304 241.246 64.1971 241.244 64.3671V99.7992C241.245 99.9663 241.293 100.13 241.385 100.274C241.476 100.418 241.608 100.537 241.766 100.619L250.881 105.479C255.821 107.759 258.847 105.072 258.847 102.373V67.3894C258.847 67.1513 258.949 66.923 259.131 66.7546C259.313 66.5863 259.561 66.4917 259.818 66.4917H264.029C264.287 66.4917 264.534 66.5863 264.717 66.7546C264.899 66.923 265.001 67.1513 265.001 67.3894V102.376C265.001 108.465 261.412 111.951 255.16 111.951C252.463 111.994 249.808 111.328 247.506 110.03L238.769 105.401C237.709 104.83 236.829 104.013 236.217 103.03C235.605 102.047 235.284 100.933 235.284 99.7992V64.3671C235.281 63.2316 235.601 62.1154 236.213 61.1305C236.825 60.1457 237.706 59.3269 238.769 58.7565L272.008 41.03C273.079 40.4889 274.279 40.2053 275.5 40.2053C276.72 40.2053 277.921 40.4889 278.992 41.03L312.227 58.7565C313.288 59.326 314.168 60.1423 314.78 61.1242C315.392 62.1061 315.715 63.2191 315.716 64.3522V99.7992C315.714 100.933 315.391 102.046 314.779 103.029C314.167 104.012 313.287 104.83 312.227 105.401L278.992 123.127C277.93 123.693 276.726 123.99 275.5 123.989Z" fill="white"/>
<path id="Vector_4" d="M269.195 87.9427C269.195 87.7046 269.297 87.4763 269.479 87.3079C269.662 87.1396 269.909 87.045 270.167 87.045H274.465C274.695 87.0457 274.917 87.1215 275.092 87.259C275.267 87.3965 275.383 87.5868 275.421 87.7961C276.069 91.8387 278.012 93.8765 286.801 93.8765C293.801 93.8765 296.784 92.4132 296.784 88.981C296.784 87.0031 295.939 85.5339 285.058 84.5494C275.962 83.7176 270.338 81.8563 270.338 75.1416C270.338 68.9475 275.991 65.252 285.466 65.252C296.114 65.252 301.384 68.6662 302.051 75.9914C302.061 76.1137 302.044 76.2366 302.001 76.3526C301.958 76.4686 301.889 76.5751 301.8 76.6657C301.71 76.7562 301.602 76.8289 301.481 76.8792C301.359 76.9294 301.228 76.9562 301.096 76.9579H296.768C296.551 76.9551 296.341 76.8852 296.172 76.7594C296.003 76.6336 295.884 76.459 295.835 76.2637C294.802 72.0116 292.272 70.6531 285.469 70.6531C277.824 70.6531 276.937 73.1128 276.937 74.956C276.937 77.1883 277.986 77.8406 288.307 79.1004C298.52 80.3482 303.373 82.1137 303.373 88.7446C303.373 95.4355 297.335 99.2656 286.804 99.2656C272.243 99.2836 269.195 93.1164 269.195 87.9427Z" fill="white"/>
</g>
</g>
</g>
<path id="Node.js" d="M241.588 198.097H238.396L228.792 183.565V198.097H225.6V178.609H228.792L238.396 193.113V178.609H241.588V198.097ZM252.472 198.349C251.016 198.349 249.7 198.023 248.524 197.369C247.348 196.697 246.424 195.764 245.752 194.569C245.08 193.356 244.744 191.956 244.744 190.369C244.744 188.801 245.089 187.411 245.78 186.197C246.47 184.984 247.413 184.051 248.608 183.397C249.802 182.744 251.137 182.417 252.612 182.417C254.086 182.417 255.421 182.744 256.616 183.397C257.81 184.051 258.753 184.984 259.444 186.197C260.134 187.411 260.48 188.801 260.48 190.369C260.48 191.937 260.125 193.328 259.416 194.541C258.706 195.755 257.736 196.697 256.504 197.369C255.29 198.023 253.946 198.349 252.472 198.349ZM252.472 195.577C253.293 195.577 254.058 195.381 254.768 194.989C255.496 194.597 256.084 194.009 256.532 193.225C256.98 192.441 257.204 191.489 257.204 190.369C257.204 189.249 256.989 188.307 256.56 187.541C256.13 186.757 255.561 186.169 254.852 185.777C254.142 185.385 253.377 185.189 252.556 185.189C251.734 185.189 250.969 185.385 250.26 185.777C249.569 186.169 249.018 186.757 248.608 187.541C248.197 188.307 247.992 189.249 247.992 190.369C247.992 192.031 248.412 193.319 249.252 194.233C250.11 195.129 251.184 195.577 252.472 195.577ZM262.571 190.313C262.571 188.764 262.888 187.392 263.523 186.197C264.176 185.003 265.054 184.079 266.155 183.425C267.275 182.753 268.516 182.417 269.879 182.417C270.887 182.417 271.876 182.641 272.847 183.089C273.836 183.519 274.62 184.097 275.199 184.825V177.377H278.419V198.097H275.199V195.773C274.676 196.52 273.948 197.136 273.015 197.621C272.1 198.107 271.046 198.349 269.851 198.349C268.507 198.349 267.275 198.013 266.155 197.341C265.054 196.651 264.176 195.699 263.523 194.485C262.888 193.253 262.571 191.863 262.571 190.313ZM275.199 190.369C275.199 189.305 274.975 188.381 274.527 187.597C274.098 186.813 273.528 186.216 272.819 185.805C272.11 185.395 271.344 185.189 270.523 185.189C269.702 185.189 268.936 185.395 268.227 185.805C267.518 186.197 266.939 186.785 266.491 187.569C266.062 188.335 265.847 189.249 265.847 190.313C265.847 191.377 266.062 192.311 266.491 193.113C266.939 193.916 267.518 194.532 268.227 194.961C268.955 195.372 269.72 195.577 270.523 195.577C271.344 195.577 272.11 195.372 272.819 194.961C273.528 194.551 274.098 193.953 274.527 193.169C274.975 192.367 275.199 191.433 275.199 190.369ZM296.752 190.005C296.752 190.584 296.714 191.107 296.64 191.573H284.852C284.945 192.805 285.402 193.795 286.224 194.541C287.045 195.288 288.053 195.661 289.248 195.661C290.965 195.661 292.178 194.943 292.888 193.505H296.332C295.865 194.924 295.016 196.091 293.784 197.005C292.57 197.901 291.058 198.349 289.248 198.349C287.773 198.349 286.448 198.023 285.272 197.369C284.114 196.697 283.2 195.764 282.528 194.569C281.874 193.356 281.548 191.956 281.548 190.369C281.548 188.783 281.865 187.392 282.5 186.197C283.153 184.984 284.058 184.051 285.216 183.397C286.392 182.744 287.736 182.417 289.248 182.417C290.704 182.417 292.001 182.735 293.14 183.369C294.278 184.004 295.165 184.9 295.8 186.057C296.434 187.196 296.752 188.512 296.752 190.005ZM293.42 188.997C293.401 187.821 292.981 186.879 292.16 186.169C291.338 185.46 290.321 185.105 289.108 185.105C288.006 185.105 287.064 185.46 286.28 186.169C285.496 186.86 285.029 187.803 284.88 188.997H293.42ZM301.181 198.293C300.602 198.293 300.117 198.097 299.725 197.705C299.333 197.313 299.137 196.828 299.137 196.249C299.137 195.671 299.333 195.185 299.725 194.793C300.117 194.401 300.602 194.205 301.181 194.205C301.741 194.205 302.217 194.401 302.609 194.793C303.001 195.185 303.197 195.671 303.197 196.249C303.197 196.828 303.001 197.313 302.609 197.705C302.217 198.097 301.741 198.293 301.181 198.293ZM308.271 180.625C307.692 180.625 307.207 180.429 306.815 180.037C306.423 179.645 306.227 179.16 306.227 178.581C306.227 178.003 306.423 177.517 306.815 177.125C307.207 176.733 307.692 176.537 308.271 176.537C308.831 176.537 309.307 176.733 309.699 177.125C310.091 177.517 310.287 178.003 310.287 178.581C310.287 179.16 310.091 179.645 309.699 180.037C309.307 180.429 308.831 180.625 308.271 180.625ZM309.839 201.121C309.839 202.633 309.456 203.725 308.691 204.397C307.944 205.088 306.852 205.433 305.415 205.433H303.763V202.745H304.855C305.508 202.745 305.966 202.615 306.227 202.353C306.507 202.111 306.647 201.7 306.647 201.121V182.669H309.839V201.121ZM319.63 198.349C318.416 198.349 317.324 198.135 316.354 197.705C315.402 197.257 314.646 196.66 314.086 195.913C313.526 195.148 313.227 194.299 313.19 193.365H316.494C316.55 194.019 316.858 194.569 317.418 195.017C317.996 195.447 318.715 195.661 319.574 195.661C320.47 195.661 321.16 195.493 321.646 195.157C322.15 194.803 322.402 194.355 322.402 193.813C322.402 193.235 322.122 192.805 321.562 192.525C321.02 192.245 320.152 191.937 318.958 191.601C317.8 191.284 316.858 190.976 316.13 190.677C315.402 190.379 314.767 189.921 314.226 189.305C313.703 188.689 313.442 187.877 313.442 186.869C313.442 186.048 313.684 185.301 314.17 184.629C314.655 183.939 315.346 183.397 316.242 183.005C317.156 182.613 318.202 182.417 319.378 182.417C321.132 182.417 322.542 182.865 323.606 183.761C324.688 184.639 325.267 185.843 325.342 187.373H322.15C322.094 186.683 321.814 186.132 321.31 185.721C320.806 185.311 320.124 185.105 319.266 185.105C318.426 185.105 317.782 185.264 317.334 185.581C316.886 185.899 316.662 186.319 316.662 186.841C316.662 187.252 316.811 187.597 317.11 187.877C317.408 188.157 317.772 188.381 318.202 188.549C318.631 188.699 319.266 188.895 320.106 189.137C321.226 189.436 322.14 189.744 322.85 190.061C323.578 190.36 324.203 190.808 324.726 191.405C325.248 192.003 325.519 192.796 325.538 193.785C325.538 194.663 325.295 195.447 324.81 196.137C324.324 196.828 323.634 197.369 322.738 197.761C321.86 198.153 320.824 198.349 319.63 198.349Z" fill="#111827"/>
</g>
<g id="Frame 77">
<g id="Frame 94_3">
<rect x="403" y="8.09717" width="148" height="148" rx="41.0443" fill="#EFF6FF"/>
<g id="Frame 93_3" filter="url(#filter2_dd_307_8204)">
<rect x="415" y="20.0972" width="124" height="124" rx="41.0443" fill="#00618A" shape-rendering="crispEdges"/>
<g id="Group 1_2">
<g id="Group_2">
<path id="Vector_5" d="M428.824 103.31H432.074V89.8622L437.106 101.586C437.699 103.005 438.512 103.507 440.106 103.507C441.699 103.507 442.481 103.005 443.075 101.586L448.106 89.8622V103.31H451.356V89.8842C451.356 88.5744 450.856 87.9411 449.825 87.6139C447.356 86.8061 445.7 87.5046 444.95 89.2512L440.012 100.822L435.231 89.2512C434.512 87.5046 432.824 86.8061 430.356 87.6139C429.324 87.9411 428.824 88.5744 428.824 89.8842V103.31Z" fill="white"/>
</g>
<g id="Group_3">
<path id="Vector_6" d="M454.058 92.3637H457.307V99.7727C457.276 100.175 457.43 101.12 459.21 101.149C460.119 101.164 466.221 101.149 466.278 101.149V92.3276H469.534C469.549 92.3276 469.531 104.358 469.531 104.409C469.549 107.376 466.018 108.021 464.39 108.07H454.128V105.779C454.146 105.779 464.383 105.781 464.409 105.779C466.5 105.547 466.253 104.458 466.253 104.091V103.198H459.345C456.131 103.167 454.085 101.697 454.059 100.006C454.057 99.8496 454.129 92.4377 454.058 92.3637Z" fill="white"/>
</g>
<g id="Group_4">
<path id="Vector_7" d="M472.04 103.309H481.384C482.478 103.309 483.54 103.069 484.384 102.654C485.79 101.977 486.478 101.06 486.478 99.8593V97.3707C486.478 96.3882 485.697 95.4711 484.165 94.8601C483.353 94.5323 482.353 94.3578 481.384 94.3578H477.446C476.134 94.3578 475.509 93.9431 475.353 93.0263C475.321 92.917 475.321 92.8295 475.321 92.7205V91.1707C475.321 91.0832 475.321 90.9957 475.353 90.8867C475.509 90.1882 475.853 89.9914 477.009 89.8824C477.103 89.8824 477.227 89.8604 477.321 89.8604H486.603V87.5903H477.477C476.165 87.5903 475.477 87.6776 474.853 87.8738C472.915 88.5071 472.071 89.5114 472.071 91.258V93.2445C472.071 94.7729 473.728 96.0827 476.509 96.3882C476.822 96.4099 477.134 96.4316 477.446 96.4316H480.821C480.946 96.4316 481.072 96.4316 481.165 96.4537C482.196 96.5412 482.634 96.7374 482.947 97.1304C483.134 97.3267 483.196 97.5235 483.196 97.7417V99.7283C483.196 99.9685 483.04 100.274 482.728 100.536C482.446 100.798 481.978 100.973 481.353 101.017C481.228 101.017 481.134 101.038 481.009 101.038H472.04V103.309Z" fill="#E48E00"/>
</g>
<g id="Group_5">
<path id="Vector_8" d="M506.75 99.3573C506.75 101.693 508.406 103.003 511.75 103.265C512.062 103.287 512.375 103.309 512.687 103.309H521.156V101.038H512.625C510.718 101.038 510 100.536 510 99.3355V87.5903H506.75V99.3573Z" fill="#E48E00"/>
</g>
<g id="Group_6">
<path id="Vector_9" d="M488.55 99.477V91.3827C488.55 89.3264 489.928 88.0792 492.652 87.6854C492.934 87.6419 493.247 87.6199 493.529 87.6199H499.698C500.011 87.6199 500.293 87.6419 500.606 87.6854C503.331 88.0792 504.709 89.3264 504.709 91.3827V99.477C504.709 101.145 504.123 102.038 502.775 102.62L505.976 105.648H502.203L499.613 103.198L497.005 103.371H493.529C492.934 103.371 492.308 103.284 491.619 103.087C489.552 102.496 488.55 101.359 488.55 99.477ZM492.058 99.2802C492.058 99.3897 492.089 99.499 492.12 99.6303C492.308 100.571 493.154 101.096 494.437 101.096H497.39L494.678 98.5302H498.452L500.817 100.768C501.253 100.524 501.54 100.152 501.64 99.674C501.671 99.5648 501.671 99.4552 501.671 99.346V91.5798C501.671 91.4922 501.671 91.3827 501.64 91.2732C501.452 90.3983 500.607 89.8952 499.354 89.8952H494.437C492.997 89.8952 492.058 90.5516 492.058 91.5798V99.2802Z" fill="#E48E00"/>
</g>
<g id="Group_7">
<path id="Vector_10" d="M522.278 86.9394C520.28 86.8827 518.754 87.0773 517.449 87.6539C517.078 87.8178 516.487 87.822 516.427 88.3089C516.63 88.5327 516.662 88.8669 516.824 89.1421C517.135 89.6704 517.661 90.3782 518.131 90.7495C518.643 91.155 519.172 91.5888 519.721 91.9399C520.699 92.5647 521.791 92.9214 522.732 93.5473C523.287 93.9162 523.838 94.3808 524.379 94.7971C524.647 95.0029 524.827 95.323 525.175 95.4519C525.175 95.4323 525.175 95.4124 525.175 95.3925C524.992 95.1488 524.945 94.8136 524.777 94.559C524.531 94.3012 524.285 94.0432 524.038 93.7852C523.316 92.7809 522.4 91.8988 521.425 91.1661C520.648 90.5816 518.909 89.7921 518.585 88.8446C518.566 88.8247 518.547 88.8048 518.528 88.7849C519.079 88.72 519.724 88.511 520.233 88.3683C521.087 88.1283 521.85 88.1904 522.732 87.9517C523.13 87.8326 523.527 87.7133 523.925 87.5945C523.925 87.5149 523.925 87.4359 523.925 87.3563C523.479 86.8769 523.161 86.2425 522.675 85.8086C521.403 84.6736 520.015 83.5396 518.585 82.5941C517.792 82.0696 516.812 81.7288 515.972 81.2844C515.689 81.135 515.193 81.0573 515.006 80.8081C514.565 80.2184 514.324 79.471 513.984 78.7842C513.271 77.3453 512.57 75.7739 511.939 74.2601C511.508 73.2278 511.226 72.2098 510.689 71.2837C508.11 66.8399 505.333 64.1576 501.032 61.5212C500.117 60.9605 499.015 60.7391 497.85 60.4498C497.226 60.4102 496.601 60.3703 495.976 60.3307C495.594 60.1636 495.198 59.6747 494.84 59.4377C493.415 58.4945 489.76 56.4429 488.705 59.1402C488.038 60.8427 489.701 62.504 490.295 63.3667C490.712 63.9719 491.247 64.6504 491.545 65.331C491.741 65.7783 491.775 66.2269 491.943 66.7003C492.356 67.8662 492.715 69.1347 493.249 70.2123C493.519 70.7574 493.817 71.3319 494.158 71.8195C494.367 72.1186 494.726 72.2504 494.783 72.7125C494.432 73.2268 494.412 74.0252 494.215 74.6768C493.327 77.6103 493.662 81.2564 494.953 83.4275C495.35 84.0939 496.283 85.5233 497.566 84.9751C498.689 84.4959 498.438 83.0111 498.759 81.7011C498.832 81.404 498.788 81.1857 498.93 80.9868C498.93 81.0065 498.93 81.0265 498.93 81.0464C499.271 81.7607 499.612 82.4749 499.952 83.1891C500.709 84.4662 502.052 85.801 503.19 86.7016C503.781 87.1686 504.245 87.9761 505.008 88.2492C505.008 88.2293 505.008 88.2097 505.008 88.1896C504.989 88.1896 504.97 88.1896 504.951 88.1896C504.804 87.948 504.572 87.848 504.383 87.6539C503.939 87.1972 503.444 86.6294 503.077 86.1062C502.042 84.6336 501.127 83.0217 500.293 81.344C499.895 80.543 499.549 79.6591 499.214 78.8438C499.084 78.5294 499.086 78.0542 498.816 77.8913C498.449 78.4887 497.908 78.9717 497.623 79.6772C497.169 80.8048 497.11 82.1799 496.942 83.6059C496.842 83.6433 496.886 83.6176 496.828 83.6653C496.037 83.4654 495.759 82.6119 495.465 81.8798C494.721 80.0281 494.583 77.0465 495.237 74.9151C495.407 74.3637 496.172 72.6267 495.862 72.1173C495.714 71.609 495.226 71.315 494.953 70.9266C494.615 70.4464 494.278 69.8142 494.044 69.2598C493.436 67.816 493.151 66.1952 492.511 64.7359C492.204 64.0382 491.686 63.3322 491.261 62.712C490.79 62.0249 490.262 61.5189 489.898 60.6878C489.768 60.3926 489.591 59.9199 489.784 59.6164C489.845 59.4116 489.931 59.3261 490.125 59.2593C490.454 58.9931 491.372 59.3479 491.715 59.4973C492.626 59.8938 493.387 60.2714 494.158 60.807C494.529 61.0644 494.903 61.5621 495.351 61.6999C495.521 61.6999 495.692 61.6999 495.862 61.6999C496.662 61.8926 497.558 61.7597 498.305 61.9975C499.625 62.4181 500.809 63.0722 501.884 63.7834C505.158 65.9498 507.835 69.0337 509.666 72.7125C509.961 73.3047 510.089 73.8701 510.348 74.4984C510.872 75.7653 511.531 77.069 512.052 78.3079C512.572 79.5441 513.079 80.7916 513.813 81.8202C514.2 82.361 515.692 82.651 516.37 82.9512C516.845 83.1617 517.624 83.3811 518.074 83.6653C518.934 84.209 519.767 84.8561 520.574 85.4514C520.977 85.749 522.216 86.4016 522.278 86.9394Z" fill="white"/>
</g>
</g>
</g>
</g>
<path id="MySQL" d="M453.096 178.637V198.097H449.904V184.769L443.968 198.097H441.756L435.792 184.769V198.097H432.6V178.637H436.044L442.876 193.897L449.68 178.637H453.096ZM471.179 182.669L461.715 205.349H458.411L461.547 197.845L455.471 182.669H459.027L463.367 194.429L467.875 182.669H471.179ZM480 198.293C478.694 198.293 477.518 198.069 476.472 197.621C475.427 197.155 474.606 196.501 474.008 195.661C473.411 194.821 473.112 193.841 473.112 192.721H476.528C476.603 193.561 476.93 194.252 477.508 194.793C478.106 195.335 478.936 195.605 480 195.605C481.102 195.605 481.96 195.344 482.576 194.821C483.192 194.28 483.5 193.589 483.5 192.749C483.5 192.096 483.304 191.564 482.912 191.153C482.539 190.743 482.063 190.425 481.484 190.201C480.924 189.977 480.14 189.735 479.132 189.473C477.863 189.137 476.827 188.801 476.024 188.465C475.24 188.111 474.568 187.569 474.008 186.841C473.448 186.113 473.168 185.143 473.168 183.929C473.168 182.809 473.448 181.829 474.008 180.989C474.568 180.149 475.352 179.505 476.36 179.057C477.368 178.609 478.535 178.385 479.86 178.385C481.746 178.385 483.286 178.861 484.48 179.813C485.694 180.746 486.366 182.035 486.496 183.677H482.968C482.912 182.968 482.576 182.361 481.96 181.857C481.344 181.353 480.532 181.101 479.524 181.101C478.61 181.101 477.863 181.335 477.284 181.801C476.706 182.268 476.416 182.94 476.416 183.817C476.416 184.415 476.594 184.909 476.948 185.301C477.322 185.675 477.788 185.973 478.348 186.197C478.908 186.421 479.674 186.664 480.644 186.925C481.932 187.28 482.978 187.635 483.78 187.989C484.602 188.344 485.292 188.895 485.852 189.641C486.431 190.369 486.72 191.349 486.72 192.581C486.72 193.571 486.45 194.504 485.908 195.381C485.386 196.259 484.611 196.968 483.584 197.509C482.576 198.032 481.382 198.293 480 198.293ZM505.551 201.625L502.135 197.929C501.295 198.172 500.371 198.293 499.363 198.293C497.552 198.293 495.881 197.873 494.351 197.033C492.839 196.175 491.635 194.989 490.739 193.477C489.861 191.947 489.423 190.229 489.423 188.325C489.423 186.421 489.861 184.713 490.739 183.201C491.635 181.689 492.839 180.513 494.351 179.673C495.881 178.814 497.552 178.385 499.363 178.385C501.192 178.385 502.863 178.814 504.375 179.673C505.905 180.513 507.109 181.689 507.987 183.201C508.864 184.713 509.303 186.421 509.303 188.325C509.303 190.117 508.911 191.741 508.127 193.197C507.361 194.635 506.297 195.792 504.935 196.669L509.611 201.625H505.551ZM492.699 188.325C492.699 189.763 492.979 191.032 493.539 192.133C494.117 193.216 494.911 194.056 495.919 194.653C496.927 195.232 498.075 195.521 499.363 195.521C500.651 195.521 501.799 195.232 502.807 194.653C503.815 194.056 504.599 193.216 505.159 192.133C505.737 191.032 506.027 189.763 506.027 188.325C506.027 186.888 505.737 185.628 505.159 184.545C504.599 183.463 503.815 182.632 502.807 182.053C501.799 181.475 500.651 181.185 499.363 181.185C498.075 181.185 496.927 181.475 495.919 182.053C494.911 182.632 494.117 183.463 493.539 184.545C492.979 185.628 492.699 186.888 492.699 188.325ZM515.718 195.521H522.298V198.097H512.526V178.637H515.718V195.521Z" fill="#111827"/>
</g>
</g>
<defs>
<filter id="filter0_dd_307_8204" x="2.87904" y="20.0972" width="142.242" height="142.242" filterUnits="userSpaceOnUse" color-interpolation-filters="sRGB">
<feFlood flood-opacity="0" result="BackgroundImageFix"/>
<feColorMatrix in="SourceAlpha" type="matrix" values="0 0 0 0 0 0 0 0 0 0 0 0 0 0 0 0 0 0 127 0" result="hardAlpha"/>
<feOffset dy="9.12096"/>
<feGaussianBlur stdDeviation="4.56048"/>
<feComposite in2="hardAlpha" operator="out"/>
<feColorMatrix type="matrix" values="0 0 0 0 0.027451 0 0 0 0 0.494118 0 0 0 0 0.854902 0 0 0 0.2 0"/>
<feBlend mode="normal" in2="BackgroundImageFix" result="effect1_dropShadow_307_8204"/>
<feColorMatrix in="SourceAlpha" type="matrix" values="0 0 0 0 0 0 0 0 0 0 0 0 0 0 0 0 0 0 127 0" result="hardAlpha"/>
<feOffset dy="9.12096"/>
<feGaussianBlur stdDeviation="4.56048"/>
<feComposite in2="hardAlpha" operator="out"/>
<feColorMatrix type="matrix" values="0 0 0 0 0.0313726 0 0 0 0 0.639216 0 0 0 0 0.901961 0 0 0 0.1 0"/>
<feBlend mode="normal" in2="effect1_dropShadow_307_8204" result="effect2_dropShadow_307_8204"/>
<feBlend mode="normal" in="SourceGraphic" in2="effect2_dropShadow_307_8204" result="shape"/>
</filter>
<filter id="filter1_dd_307_8204" x="204.379" y="20.0972" width="142.242" height="142.242" filterUnits="userSpaceOnUse" color-interpolation-filters="sRGB">
<feFlood flood-opacity="0" result="BackgroundImageFix"/>
<feColorMatrix in="SourceAlpha" type="matrix" values="0 0 0 0 0 0 0 0 0 0 0 0 0 0 0 0 0 0 127 0" result="hardAlpha"/>
<feOffset dy="9.12096"/>
<feGaussianBlur stdDeviation="4.56048"/>
<feComposite in2="hardAlpha" operator="out"/>
<feColorMatrix type="matrix" values="0 0 0 0 0.513726 0 0 0 0 0.803922 0 0 0 0 0.160784 0 0 0 0.2 0"/>
<feBlend mode="normal" in2="BackgroundImageFix" result="effect1_dropShadow_307_8204"/>
<feColorMatrix in="SourceAlpha" type="matrix" values="0 0 0 0 0 0 0 0 0 0 0 0 0 0 0 0 0 0 127 0" result="hardAlpha"/>
<feOffset dy="9.12096"/>
<feGaussianBlur stdDeviation="4.56048"/>
<feComposite in2="hardAlpha" operator="out"/>
<feColorMatrix type="matrix" values="0 0 0 0 0.513726 0 0 0 0 0.803922 0 0 0 0 0.160784 0 0 0 0.2 0"/>
<feBlend mode="normal" in2="effect1_dropShadow_307_8204" result="effect2_dropShadow_307_8204"/>
<feBlend mode="normal" in="SourceGraphic" in2="effect2_dropShadow_307_8204" result="shape"/>
</filter>
<filter id="filter2_dd_307_8204" x="405.879" y="20.0972" width="142.242" height="142.242" filterUnits="userSpaceOnUse" color-interpolation-filters="sRGB">
<feFlood flood-opacity="0" result="BackgroundImageFix"/>
<feColorMatrix in="SourceAlpha" type="matrix" values="0 0 0 0 0 0 0 0 0 0 0 0 0 0 0 0 0 0 127 0" result="hardAlpha"/>
<feOffset dy="9.12096"/>
<feGaussianBlur stdDeviation="4.56048"/>
<feComposite in2="hardAlpha" operator="out"/>
<feColorMatrix type="matrix" values="0 0 0 0 0 0 0 0 0 0.380392 0 0 0 0 0.541176 0 0 0 0.2 0"/>
<feBlend mode="normal" in2="BackgroundImageFix" result="effect1_dropShadow_307_8204"/>
<feColorMatrix in="SourceAlpha" type="matrix" values="0 0 0 0 0 0 0 0 0 0 0 0 0 0 0 0 0 0 127 0" result="hardAlpha"/>
<feOffset dy="9.12096"/>
<feGaussianBlur stdDeviation="4.56048"/>
<feComposite in2="hardAlpha" operator="out"/>
<feColorMatrix type="matrix" values="0 0 0 0 0 0 0 0 0 0.380392 0 0 0 0 0.541176 0 0 0 0.2 0"/>
<feBlend mode="normal" in2="effect1_dropShadow_307_8204" result="effect2_dropShadow_307_8204"/>
<feBlend mode="normal" in="SourceGraphic" in2="effect2_dropShadow_307_8204" result="shape"/>
</filter>
</defs>
</svg>
